# xmcd
#
# Track frame offsets:
#	175
#	20857
#	41977
#	61075
#	79477
#	93392
#	114235
#	139002
#	157460
#	177872
#
# Disc length: 2698 seconds
#
# Revision: 2
# Processed by: cddbd v1.5.1PL0 Copyright (c) Steve Scherf et al.
# Submitted via: EasyCDDAExtractor 7.0.9.1
#
DISCID=8b0a880a
DTITLE=Patricia Sosa - Suave y profundo
DYEAR=1994
DGENRE=Blues
TTITLE0=Todo empieza otra vez
TTITLE1=Mira la luna
TTITLE2=Noche de amores
TTITLE3=Aprender a volar
TTITLE4=Llueve
TTITLE5=Suave y profundo
TTITLE6=Amarte hasta el final
TTITLE7=Corazones en llamas
TTITLE8=Escribeme
TTITLE9=Salva lo que queda
EXTD=
EXTT0=
EXTT1=
EXTT2=
EXTT3=
EXTT4=
EXTT5=
EXTT6=
EXTT7=
EXTT8=
EXTT9=
PLAYORDER=
